<svg width="24" height="24" viewBox="0 0 24 24" fill="none" xmlns="http://www.w3.org/2000/svg">
  <path d="M19.2183 14.4226C18.9167 14.4226 18.6181 14.3449 18.3549 14.1993C17.9373 13.9687 17.6356 13.5889 17.5044 13.1302C17.3725 12.6715 17.428 12.1895 17.6582 11.7718C18.1125 10.9491 17.8146 9.90937 16.9933 9.45432C16.4755 9.16686 15.813 9.17603 15.3031 9.47756C15.1603 9.56197 15.1108 9.74546 15.1914 9.89041C15.6347 10.6861 15.3856 11.7002 14.6254 12.1999C14.5112 12.2745 14.353 12.2598 14.2553 12.1632L5.85583 3.87568C5.68669 3.70871 5.60731 3.46834 5.64395 3.23225L5.7734 2.39861C5.79416 2.26527 5.72516 2.13378 5.60426 2.07628L1.49976 0.0982852C0.993571 -0.146977 0.345718 0.0854411 0.103307 0.588197C-0.0316372 0.870157 -0.0346902 1.19493 0.0959795 1.47995L1.87895 5.36927C1.92841 5.47692 2.03588 5.54665 2.15372 5.54726L2.89195 5.55276C3.08551 5.55399 3.26869 5.62983 3.4073 5.76622L12.8003 15.0317L13.0152 14.8146L12.7966 15.0941C12.7404 15.1302 12.6824 15.1608 12.622 15.1883C12.0394 15.4391 11.3317 15.1522 11.0826 14.5742C11.0405 14.4764 10.9483 14.4073 10.8414 14.3926C10.7346 14.3773 10.6277 14.4213 10.5618 14.5076C9.93163 15.3125 10.0727 16.4825 10.8775 17.1143C11.2914 17.4391 11.8373 17.573 12.3576 17.4789C12.4638 17.4599 12.5719 17.4489 12.6787 17.4489C13.6496 17.4489 14.4391 18.2397 14.4391 19.2122C14.4391 21.852 16.5836 24 19.219 24C21.8556 24 24 21.852 24 19.2122C24 16.5724 21.8555 14.4226 19.2183 14.4226ZM19.8277 17.9296C19.948 18.0489 19.9492 18.2428 19.832 18.362L18.38 19.8385C18.3201 19.8997 18.2408 19.9302 18.1632 19.9302C18.0857 19.9302 18.0087 19.9003 17.9489 19.8416C17.8286 19.7223 17.8274 19.5284 17.9446 19.4091L19.396 17.9327C19.5157 17.8116 19.708 17.8116 19.8277 17.9296ZM18.6499 17.1951L17.1985 18.6715C17.1386 18.7339 17.0592 18.7633 16.9817 18.7633C16.9041 18.7633 16.8266 18.7333 16.7668 18.6746C16.6465 18.5565 16.6452 18.3614 16.7631 18.2422L18.2145 16.7657C18.333 16.6452 18.5271 16.644 18.6462 16.762C18.7665 16.8819 18.7677 17.0758 18.6499 17.1951ZM17.4671 16.0293L16.0157 17.5045C15.9553 17.5669 15.8765 17.5963 15.7983 17.5963C15.7208 17.5963 15.6432 17.5663 15.584 17.5076C15.4637 17.3896 15.4625 17.1944 15.5797 17.0752L17.0312 15.5999C17.1502 15.4782 17.345 15.4782 17.4628 15.5963C17.5844 15.7161 17.5856 15.91 17.4671 16.0293ZM16.285 14.8635L14.8336 16.3388C14.7737 16.3999 14.6944 16.4293 14.6168 16.4293C14.5393 16.4293 14.4617 16.4006 14.4019 16.3418C14.2816 16.2226 14.2804 16.0287 14.3982 15.9094L15.8496 14.433C15.9681 14.3125 16.1635 14.3112 16.2813 14.4293C16.4016 14.5492 16.4028 14.7424 16.285 14.8635Z" fill="white"/>
  </svg>
  