<svg width="18" height="18" viewBox="0 0 18 18" fill="none" xmlns="http://www.w3.org/2000/svg">
  <path d="M10.0945 17.2032L10.0945 15.3047C10.0945 15.1969 10.0477 15.0938 9.96562 15.0212L4.05234 9.89068L17.25 9.89068C17.3531 9.89068 17.4375 9.80631 17.4375 9.70318L17.4375 8.29693C17.4375 8.19381 17.3531 8.10943 17.25 8.10943L4.05234 8.10943L9.96562 2.97897C10.0477 2.90865 10.0945 2.80553 10.0945 2.69537L10.0945 0.796934C10.0945 0.637559 9.90469 0.55084 9.78516 0.656309L0.820311 8.43522C0.739191 8.50553 0.674133 8.59246 0.629545 8.69012C0.584957 8.78778 0.561882 8.89388 0.561882 9.00123C0.561882 9.10858 0.584957 9.21468 0.629545 9.31234C0.674133 9.41 0.739191 9.49693 0.820311 9.56725L9.78515 17.3438C9.90703 17.4493 10.0945 17.3626 10.0945 17.2032Z" fill="white"/>
  </svg>
  