<svg width="24" height="28" viewBox="0 0 24 28" fill="none" xmlns="http://www.w3.org/2000/svg">
  <path d="M14.3266 26.7183C14.051 27.7579 13.0103 28 12 28C10.9898 28 9.94897 27.7579 9.6735 26.7183C9.26395 25.1636 8.57143 21.2679 8.57143 19.4551C8.57143 17.5325 10.2397 17.0625 12 17.0625C13.7603 17.0625 15.4286 17.5325 15.4286 19.4551C15.4286 21.257 14.7391 25.1524 14.3266 26.7183ZM8.40359 15.7803C7.40218 14.7791 6.7987 13.3646 6.86159 11.81C6.97162 9.09076 9.13275 6.89057 11.7968 6.7853C14.7248 6.66958 17.1429 9.06757 17.1429 12.0312C17.1429 13.4984 16.5501 14.8267 15.5965 15.7802C15.4532 15.9235 15.4678 16.1622 15.6301 16.2826C16.129 16.6526 16.5119 17.1217 16.7676 17.6696C16.8609 17.8695 17.1157 17.9245 17.2738 17.7731C18.8181 16.2941 19.7677 14.1755 19.7119 11.8359C19.6126 7.66839 16.3051 4.27766 12.223 4.15948C7.86798 4.03337 4.28571 7.61332 4.28571 12.0312C4.28571 14.2932 5.22493 16.3352 6.72589 17.7728C6.88409 17.9244 7.13898 17.8696 7.2323 17.6696C7.48805 17.1216 7.87104 16.6526 8.36989 16.2826C8.53216 16.1623 8.54689 15.9235 8.40359 15.7803ZM12 0C5.36807 0 0 5.47887 0 12.25C0 17.1714 2.81796 21.3088 6.73602 23.2645C6.96814 23.3803 7.23246 23.1801 7.19325 22.9194C7.06564 22.0711 6.96064 21.2271 6.90364 20.4946C6.89582 20.3942 6.84209 20.304 6.76018 20.2479C4.22089 18.5085 2.55139 15.5439 2.57159 12.1898C2.6033 6.92688 6.81927 2.63878 11.9749 2.62505C17.1853 2.61116 21.4286 6.93421 21.4286 12.25C21.4286 15.6369 19.7058 18.6205 17.108 20.3365C17.0545 21.1041 16.9436 22.0093 16.8068 22.9194C16.7675 23.1801 17.0319 23.3803 17.264 23.2644C21.1729 21.3132 24 17.1821 24 12.25C24 5.47996 18.6329 0 12 0ZM12 8.75C10.1065 8.75 8.57143 10.317 8.57143 12.25C8.57143 14.183 10.1065 15.75 12 15.75C13.8935 15.75 15.4286 14.183 15.4286 12.25C15.4286 10.317 13.8935 8.75 12 8.75Z" fill="white"/>
  </svg>
   