<svg width="31" height="20" viewBox="0 0 31 20" fill="none" xmlns="http://www.w3.org/2000/svg">
  <path d="M18.3596 2.91358C19.0885 3.10415 19.7913 3.35459 20.4608 3.66407C21.726 2.70183 23.5364 2.79712 24.6921 3.95237C25.6808 4.94107 25.8929 6.40865 25.333 7.60462C25.9451 8.42189 26.4622 9.31775 26.8649 10.2706H26.8743C28.6563 10.2706 30.1002 11.7146 30.1002 13.4965C30.1002 14.9592 29.1307 16.1959 27.7942 16.5889C27.7083 17.3797 27.5438 18.1566 27.3055 18.945C27.1887 19.3335 26.8291 19.5859 26.4406 19.5859L3.8552 19.5908C3.41705 19.5908 3.05015 19.2785 2.96667 18.8664C2.72846 18.0613 2.57127 17.2799 2.49024 16.4744C1.32766 15.9886 0.510391 14.8379 0.510391 13.4965C0.510391 11.8192 1.79228 10.4421 3.42641 10.2849C3.83159 9.32712 4.34833 8.42922 4.96566 7.60707C4.40331 6.4111 4.61546 4.94107 5.60417 3.95237C6.75942 2.79712 8.57272 2.70427 9.83751 3.66651C10.507 3.35947 11.2098 3.10415 11.9367 2.91358C12.0939 1.27945 13.471 0 15.1479 0C16.8252 0 18.2024 1.27701 18.3596 2.91358ZM24.0963 8.98669C22.8527 9.74899 21.2068 9.5918 20.1297 8.51474C19.222 7.60707 18.9696 6.29911 19.3674 5.16504C18.9337 4.98179 18.4809 4.82665 18.0187 4.70041C17.4829 5.74164 16.3989 6.45182 15.1479 6.45182C13.8974 6.45182 12.8134 5.7392 12.2771 4.70041C11.8149 4.82665 11.367 4.98424 10.9313 5.16504C11.3291 6.29667 11.0718 7.60951 10.1665 8.51474C9.08947 9.5918 7.44556 9.74899 6.20195 8.98669C5.8375 9.50833 5.51825 10.0658 5.24908 10.6473C6.26873 11.1881 6.96221 12.2623 6.96221 13.4965C6.96221 15.0712 5.83261 16.384 4.34141 16.665C4.3915 17.0368 4.46032 17.4061 4.54624 17.7755H25.75C25.8429 17.3846 25.9141 16.9892 25.9642 16.5913C24.6253 16.2004 23.6484 14.9617 23.6484 13.4965C23.6484 12.3625 24.2323 11.3664 25.116 10.7923C24.8326 10.1562 24.4897 9.55108 24.0963 8.98669Z" fill="white"/>
  </svg>
  